<svg width="30" height="20" viewBox="0 0 30 20" fill="none" xmlns="http://www.w3.org/2000/svg">
<path d="M29.3163 1.35625C29.5223 0.575 29.3163 0 28.325 0H25.0447C24.2093 0 23.825 0.49375 23.619 1.04375C23.619 1.04375 21.9482 5.6125 19.5869 8.575C18.8239 9.43125 18.473 9.70625 18.0554 9.70625C17.8493 9.70625 17.5318 9.43125 17.5318 8.65V1.35625C17.5318 0.41875 17.2979 0 16.6074 0H11.4503C10.9268 0 10.6149 0.4375 10.6149 0.84375C10.6149 1.73125 11.7956 1.9375 11.9181 4.4375V9.8625C11.9181 11.05 11.7287 11.2687 11.311 11.2687C10.1972 11.2687 7.49058 6.68125 5.88665 1.43125C5.56363 0.4125 5.24619 0 4.40524 0H1.12498C0.189353 0 0 0.49375 0 1.04375C0 2.01875 1.11384 6.8625 5.18493 13.2625C7.89713 17.6313 11.7176 20 15.1928 20C17.2812 20 17.5374 19.475 17.5374 18.5688C17.5374 14.3938 17.3481 14 18.3951 14C18.8796 14 19.715 14.275 21.6642 16.3813C23.8919 18.8813 24.2594 20 25.5069 20H28.7872C29.7228 20 30.1962 19.475 29.9233 18.4375C29.2996 16.2562 25.0837 11.7688 24.8943 11.4688C24.4098 10.7688 24.549 10.4563 24.8943 9.83125C24.8999 9.825 28.9042 3.5 29.3163 1.35625V1.35625Z" fill="white"/>
</svg>
