<svg width="130" height="130" viewBox="0 0 130 130" fill="none" xmlns="http://www.w3.org/2000/svg">
<g filter="url(#filter0_d)">
<circle cx="60" cy="60" r="60" fill="white"/>
<g filter="url(#filter1_d)">
<path d="M86.4277 45.925C85.5312 45.6035 84.6348 45.3 83.7383 45.0143C83.8877 44.3536 84.0205 43.6929 84.1533 43.0322C86.1953 32.39 84.8506 23.8368 80.3184 21.0156C75.9521 18.3193 68.8301 21.1227 61.625 27.8723C60.9111 28.533 60.2139 29.2294 59.5498 29.9258C59.1016 29.4615 58.6367 28.9973 58.1719 28.5509C50.6182 21.337 43.0479 18.3014 38.5156 21.1406C34.166 23.8547 32.8711 31.9078 34.6973 41.9787C34.8799 42.9787 35.0791 43.9608 35.3115 44.9607C34.249 45.2821 33.2031 45.6393 32.2236 46.0142C23.3584 49.3176 17 54.5316 17 59.9242C17 65.4953 23.7734 71.0843 32.9873 74.477C33.7344 74.7448 34.4814 75.0127 35.2451 75.2448C34.9961 76.3162 34.7803 77.3697 34.5811 78.4589C32.8379 88.3691 34.1992 96.2258 38.5488 98.9221C43.0312 101.708 50.5684 98.8507 57.9062 91.9404C58.4873 91.3868 59.0684 90.8154 59.6494 90.2083C60.3799 90.9761 61.1436 91.7082 61.9072 92.4225C69.0127 98.9935 76.0352 101.654 80.3682 98.9578C84.8506 96.1723 86.3115 87.7263 84.4189 77.4411C84.2695 76.6555 84.1035 75.8519 83.9209 75.0305C84.4521 74.8698 84.9668 74.6913 85.4814 74.5127C95.0605 71.1022 102 65.5846 102 59.9242C102 54.5138 95.459 49.2641 86.4277 45.925ZM63.9658 30.765C70.1416 24.9796 75.9023 22.7119 78.5254 24.3368C81.3311 26.0689 82.4102 33.0685 80.6504 42.2644C80.5342 42.8715 80.418 43.4608 80.2686 44.0501C76.583 43.1572 72.8477 42.5144 69.0957 42.1573C66.9375 38.836 64.5801 35.6576 62.0234 32.6757C62.6709 32.015 63.3018 31.39 63.9658 30.765ZM42.3838 64.5311C43.1475 66.1024 43.9277 67.6559 44.7578 69.1916C45.6045 70.7451 46.4678 72.2985 47.3809 73.8163C44.791 73.5128 42.2178 73.0664 39.6777 72.4771C40.4082 69.9058 41.3213 67.2452 42.3838 64.5311ZM42.3838 55.4959C41.3379 52.8353 40.458 50.2283 39.7275 47.7106C42.1182 47.1392 44.6582 46.6749 47.2979 46.3178C46.418 47.7999 45.5547 49.3176 44.7412 50.8533C43.9277 52.371 43.1309 53.9245 42.3838 55.4959ZM44.2764 60.0135C45.3721 57.5493 46.5674 55.1387 47.8291 52.7639C49.0908 50.389 50.4521 48.0856 51.8799 45.8178C54.3701 45.6214 56.9102 45.5143 59.5 45.5143C62.0898 45.5143 64.6465 45.6214 67.1201 45.8178C68.5312 48.0677 69.876 50.3711 71.1543 52.7282C72.4326 55.0852 73.6279 57.4958 74.7568 59.9421C73.6445 62.4062 72.4492 64.8347 71.1709 67.2274C69.9092 69.6023 68.5645 71.9057 67.1533 74.1913C64.6797 74.3877 62.1064 74.477 59.5 74.477C56.8936 74.477 54.3701 74.3877 51.9297 74.227C50.4854 71.9593 49.124 69.638 47.8457 67.2631C46.5674 64.8882 45.3887 62.4776 44.2764 60.0135ZM74.2588 69.1559C75.1055 67.5845 75.9023 65.9953 76.6826 64.3883C77.7451 66.9774 78.6748 69.6023 79.4883 72.2985C76.915 72.9235 74.3086 73.4056 71.6855 73.727C72.582 72.2271 73.4287 70.6915 74.2588 69.1559ZM76.6494 55.4959C75.8691 53.9245 75.0723 52.3532 74.2422 50.8176C73.4287 49.2998 72.582 47.7999 71.7021 46.3178C74.375 46.6749 76.9316 47.157 79.3223 47.7463C78.5586 50.389 77.6621 52.9603 76.6494 55.4959ZM59.5332 35.4077C61.2764 37.4433 62.9199 39.586 64.4473 41.8002C61.1602 41.6395 57.8564 41.6395 54.5693 41.8002C56.1963 39.4967 57.8731 37.354 59.5332 35.4077ZM40.2754 24.4618C43.0645 22.7119 49.2568 25.2118 55.7812 31.4257C56.1963 31.8186 56.6113 32.2471 57.043 32.6757C54.4697 35.6576 52.0957 38.836 49.9209 42.1573C46.1689 42.5144 42.4502 43.1394 38.7647 44.0143C38.5488 43.1037 38.3662 42.1752 38.1836 41.2466C36.623 32.6042 37.6523 26.0867 40.2754 24.4618ZM36.208 71.5307C35.5107 71.3165 34.8301 71.0843 34.1494 70.8343C30.6133 69.638 26.5957 67.7452 23.6904 65.2632C22.0137 64.0133 20.8848 62.0848 20.5693 59.9242C20.5693 56.6565 25.8154 52.4782 33.3857 49.639C34.332 49.2819 35.2949 48.9605 36.2578 48.6569C37.3867 52.5317 38.748 56.3351 40.3252 60.0135C38.7314 63.7454 37.3535 67.6024 36.208 71.5307ZM55.5654 89.0298C52.8262 91.7261 49.6553 93.8688 46.2021 95.333C44.3594 96.2794 42.2344 96.3687 40.3418 95.5652C37.7022 93.9224 36.6064 87.6192 38.1006 79.1375C38.2832 78.1375 38.4824 77.1376 38.7148 76.1555C42.4336 77.0126 46.1855 77.6018 49.9873 77.9054C52.1787 81.2445 54.5859 84.4408 57.1592 87.4406C56.6279 87.9941 56.0967 88.5298 55.5654 89.0298ZM59.6328 84.6907C57.9394 82.7266 56.2461 80.5481 54.6025 78.2089C56.1963 78.2804 57.8398 78.3161 59.5 78.3161C61.21 78.3161 62.8867 78.2804 64.5469 78.1911C63.0195 80.4588 61.376 82.6194 59.6328 84.6907ZM81.3311 90.0476C81.1816 92.226 80.1855 94.2617 78.5918 95.6366C75.9521 97.2794 70.3242 95.1366 64.248 89.5298C63.5508 88.8869 62.8535 88.1906 62.1396 87.4763C64.6797 84.4586 67.0205 81.2624 69.1455 77.9054C72.9473 77.5661 76.7324 76.9412 80.4678 76.0305C80.6338 76.7626 80.7832 77.4947 80.916 78.2089C81.7295 82.0659 81.8623 86.0835 81.3311 90.0476ZM84.3525 70.8522C83.8877 71.0129 83.4229 71.1736 82.9414 71.3165C81.7793 67.4238 80.3516 63.6204 78.708 59.9242C80.3018 56.2815 81.6465 52.5317 82.7754 48.6927C83.6387 48.9605 84.4688 49.2462 85.2656 49.5319C93.002 52.3889 98.4307 56.6387 98.4307 59.8885C98.4307 63.3883 92.6367 67.9059 84.3525 70.8522ZM59.5 51.8175C63.7002 51.8175 67.1035 55.478 67.1035 59.9956C67.1035 64.5132 63.7002 68.1738 59.5 68.1738C55.2998 68.1738 51.8965 64.5132 51.8965 59.9956C51.8965 55.478 55.2998 51.8175 59.5 51.8175Z" fill="#E2231A"/>
</g>
</g>
<defs>
<filter id="filter0_d" x="0" y="0" width="130" height="130" filterUnits="userSpaceOnUse" color-interpolation-filters="sRGB">
<feFlood flood-opacity="0" result="BackgroundImageFix"/>
<feColorMatrix in="SourceAlpha" type="matrix" values="0 0 0 0 0 0 0 0 0 0 0 0 0 0 0 0 0 0 127 0"/>
<feOffset dx="5" dy="5"/>
<feGaussianBlur stdDeviation="2.5"/>
<feColorMatrix type="matrix" values="0 0 0 0 0 0 0 0 0 0 0 0 0 0 0 0 0 0 0.45 0"/>
<feBlend mode="normal" in2="BackgroundImageFix" result="effect1_dropShadow"/>
<feBlend mode="normal" in="SourceGraphic" in2="effect1_dropShadow" result="shape"/>
</filter>
<filter id="filter1_d" x="17" y="20" width="95" height="90" filterUnits="userSpaceOnUse" color-interpolation-filters="sRGB">
<feFlood flood-opacity="0" result="BackgroundImageFix"/>
<feColorMatrix in="SourceAlpha" type="matrix" values="0 0 0 0 0 0 0 0 0 0 0 0 0 0 0 0 0 0 127 0"/>
<feOffset dx="5" dy="5"/>
<feGaussianBlur stdDeviation="2.5"/>
<feColorMatrix type="matrix" values="0 0 0 0 0 0 0 0 0 0 0 0 0 0 0 0 0 0 0.45 0"/>
<feBlend mode="normal" in2="BackgroundImageFix" result="effect1_dropShadow"/>
<feBlend mode="normal" in="SourceGraphic" in2="effect1_dropShadow" result="shape"/>
</filter>
</defs>
</svg>
