<svg width="130" height="130" viewBox="0 0 130 130" fill="none" xmlns="http://www.w3.org/2000/svg">
<g filter="url(#filter0_d)">
<circle cx="60" cy="60" r="60" fill="white"/>
</g>
<g filter="url(#filter1_d)">
<path d="M60 20C37.9085 20 20 37.9085 20 60C20 82.0914 37.9085 100 60 100C82.0914 100 100 82.0914 100 60C100 37.9085 82.0914 20 60 20ZM60 27.7419C77.8277 27.7419 92.2581 42.1695 92.2581 60C92.2581 77.8277 77.8305 92.2581 60 92.2581C42.1723 92.2581 27.7419 77.8305 27.7419 60C27.7419 42.1723 42.1695 27.7419 60 27.7419ZM82.6135 48.7527L78.9787 45.0885C78.226 44.3297 77.0005 44.3247 76.2416 45.0776L53.4429 67.6931L43.799 57.971C43.0463 57.2121 41.8208 57.2071 41.0619 57.9598L37.3976 61.5947C36.6387 62.3474 36.6337 63.5729 37.3866 64.3319L52.0287 79.0926C52.7815 79.8514 54.0069 79.8564 54.7658 79.1035L82.6027 51.49C83.3614 50.7371 83.3663 49.5116 82.6135 48.7527V48.7527Z" fill="#E2231A"/>
</g>
<defs>
<filter id="filter0_d" x="0" y="0" width="130" height="130" filterUnits="userSpaceOnUse" color-interpolation-filters="sRGB">
<feFlood flood-opacity="0" result="BackgroundImageFix"/>
<feColorMatrix in="SourceAlpha" type="matrix" values="0 0 0 0 0 0 0 0 0 0 0 0 0 0 0 0 0 0 127 0"/>
<feOffset dx="5" dy="5"/>
<feGaussianBlur stdDeviation="2.5"/>
<feColorMatrix type="matrix" values="0 0 0 0 0 0 0 0 0 0 0 0 0 0 0 0 0 0 0.45 0"/>
<feBlend mode="normal" in2="BackgroundImageFix" result="effect1_dropShadow"/>
<feBlend mode="normal" in="SourceGraphic" in2="effect1_dropShadow" result="shape"/>
</filter>
<filter id="filter1_d" x="20" y="20" width="90" height="90" filterUnits="userSpaceOnUse" color-interpolation-filters="sRGB">
<feFlood flood-opacity="0" result="BackgroundImageFix"/>
<feColorMatrix in="SourceAlpha" type="matrix" values="0 0 0 0 0 0 0 0 0 0 0 0 0 0 0 0 0 0 127 0"/>
<feOffset dx="5" dy="5"/>
<feGaussianBlur stdDeviation="2.5"/>
<feColorMatrix type="matrix" values="0 0 0 0 0 0 0 0 0 0 0 0 0 0 0 0 0 0 0.45 0"/>
<feBlend mode="normal" in2="BackgroundImageFix" result="effect1_dropShadow"/>
<feBlend mode="normal" in="SourceGraphic" in2="effect1_dropShadow" result="shape"/>
</filter>
</defs>
</svg>
