<svg width="130" height="130" viewBox="0 0 130 130" fill="none" xmlns="http://www.w3.org/2000/svg">
<g filter="url(#filter0_d)">
<circle cx="60" cy="60" r="60" fill="white"/>
</g>
<g filter="url(#filter1_d)">
<path d="M103.8 73.125H101.6V58.3457C101.6 56.6094 100.899 54.9414 99.6613 53.7109L85.925 40.0527C84.6875 38.8223 83.01 38.125 81.2638 38.125H75.2V31.5625C75.2 27.9395 72.2438 25 68.6 25H24.6C20.9563 25 18 27.9395 18 31.5625V75.3125C18 78.9355 20.9563 81.875 24.6 81.875H26.8C26.8 89.1211 32.7125 95 40 95C47.2875 95 53.2 89.1211 53.2 81.875H70.8C70.8 89.1211 76.7125 95 84 95C91.2875 95 97.2 89.1211 97.2 81.875H103.8C105.01 81.875 106 80.8906 106 79.6875V75.3125C106 74.1094 105.01 73.125 103.8 73.125ZM40 88.4375C36.3562 88.4375 33.4 85.498 33.4 81.875C33.4 78.252 36.3562 75.3125 40 75.3125C43.6438 75.3125 46.6 78.252 46.6 81.875C46.6 85.498 43.6438 88.4375 40 88.4375ZM84 88.4375C80.3562 88.4375 77.4 85.498 77.4 81.875C77.4 78.252 80.3562 75.3125 84 75.3125C87.6438 75.3125 90.6 78.252 90.6 81.875C90.6 85.498 87.6438 88.4375 84 88.4375ZM95 60H75.2V44.6875H81.2638L95 58.3457V60Z" fill="#E2231A"/>
</g>
<defs>
<filter id="filter0_d" x="0" y="0" width="130" height="130" filterUnits="userSpaceOnUse" color-interpolation-filters="sRGB">
<feFlood flood-opacity="0" result="BackgroundImageFix"/>
<feColorMatrix in="SourceAlpha" type="matrix" values="0 0 0 0 0 0 0 0 0 0 0 0 0 0 0 0 0 0 127 0"/>
<feOffset dx="5" dy="5"/>
<feGaussianBlur stdDeviation="2.5"/>
<feColorMatrix type="matrix" values="0 0 0 0 0 0 0 0 0 0 0 0 0 0 0 0 0 0 0.45 0"/>
<feBlend mode="normal" in2="BackgroundImageFix" result="effect1_dropShadow"/>
<feBlend mode="normal" in="SourceGraphic" in2="effect1_dropShadow" result="shape"/>
</filter>
<filter id="filter1_d" x="13" y="20" width="108" height="90" filterUnits="userSpaceOnUse" color-interpolation-filters="sRGB">
<feFlood flood-opacity="0" result="BackgroundImageFix"/>
<feColorMatrix in="SourceAlpha" type="matrix" values="0 0 0 0 0 0 0 0 0 0 0 0 0 0 0 0 0 0 127 0"/>
<feOffset dx="5" dy="5"/>
<feGaussianBlur stdDeviation="5"/>
<feColorMatrix type="matrix" values="0 0 0 0 0 0 0 0 0 0 0 0 0 0 0 0 0 0 0.45 0"/>
<feBlend mode="normal" in2="BackgroundImageFix" result="effect1_dropShadow"/>
<feBlend mode="normal" in="SourceGraphic" in2="effect1_dropShadow" result="shape"/>
</filter>
</defs>
</svg>
