<svg width="130" height="130" viewBox="0 0 130 130" fill="none" xmlns="http://www.w3.org/2000/svg">
<g filter="url(#filter0_d)">
<circle cx="60" cy="60" r="60" fill="white"/>
</g>
<g filter="url(#filter1_d)">
<path d="M57.8828 37.5469L65.2358 39.7812C65.7652 39.9375 66.1329 40.4688 66.1329 41.0469C66.1329 41.7656 65.574 42.3594 64.8976 42.3594H60.074C59.5446 42.3594 59.0299 42.2344 58.5593 42.0156C57.8534 41.6719 57.0298 41.75 56.4857 42.3281L53.9121 45.0625C53.1327 45.8906 53.221 47.2969 54.1327 47.9375C55.5298 48.9219 57.1181 49.5156 58.8093 49.7344V52.5C58.8093 53.875 59.8681 55 61.1622 55H63.5152C64.8093 55 65.8682 53.875 65.8682 52.5V49.75C70.3241 49.1875 73.7065 44.9062 73.1182 39.9062C72.6918 36.3125 70.0741 33.4531 66.8093 32.4531L59.4563 30.2188C58.9269 30.0625 58.5593 29.5313 58.5593 28.9531C58.5593 28.2344 59.1181 27.6406 59.7946 27.6406H64.6181C65.1476 27.6406 65.6623 27.7656 66.1329 27.9844C66.8388 28.3281 67.6623 28.25 68.2064 27.6719L70.78 24.9375C71.5594 24.1094 71.4712 22.7031 70.5594 22.0625C69.1623 21.0781 67.5741 20.4844 65.8829 20.2656V17.5C65.8829 16.125 64.824 15 63.5299 15H61.1769C59.8828 15 58.824 16.125 58.824 17.5V20.25C54.368 20.8125 50.9856 25.0938 51.5739 30.0938C52.0004 33.6875 54.618 36.5469 57.8828 37.5469ZM98.5156 66.2656C96.8685 64.5938 94.3244 64.7031 92.5891 66.2656L79.7654 77.8125C78.1918 79.2344 76.2359 80 74.2065 80H57.7798C56.5592 80 55.5592 78.875 55.5592 77.5C55.5592 76.125 56.5592 75 57.7798 75H68.6476C70.8682 75 72.9124 73.2969 73.2653 70.8438C73.7212 67.7188 71.5741 65 68.8829 65H46.6621C42.912 65 39.2796 66.4531 36.3825 69.1094L29.9266 75H22.2206C21 75 20 76.125 20 77.5V92.5C20 93.875 21 95 22.2206 95H71.7653C73.78 95 75.7359 94.2344 77.3242 92.8125L98.3244 73.9062C100.442 72.0156 100.604 68.3906 98.5156 66.2656Z" fill="#E2231A"/>
</g>
<defs>
<filter id="filter0_d" x="0" y="0" width="130" height="130" filterUnits="userSpaceOnUse" color-interpolation-filters="sRGB">
<feFlood flood-opacity="0" result="BackgroundImageFix"/>
<feColorMatrix in="SourceAlpha" type="matrix" values="0 0 0 0 0 0 0 0 0 0 0 0 0 0 0 0 0 0 127 0"/>
<feOffset dx="5" dy="5"/>
<feGaussianBlur stdDeviation="2.5"/>
<feColorMatrix type="matrix" values="0 0 0 0 0 0 0 0 0 0 0 0 0 0 0 0 0 0 0.45 0"/>
<feBlend mode="normal" in2="BackgroundImageFix" result="effect1_dropShadow"/>
<feBlend mode="normal" in="SourceGraphic" in2="effect1_dropShadow" result="shape"/>
</filter>
<filter id="filter1_d" x="20" y="15" width="90" height="90" filterUnits="userSpaceOnUse" color-interpolation-filters="sRGB">
<feFlood flood-opacity="0" result="BackgroundImageFix"/>
<feColorMatrix in="SourceAlpha" type="matrix" values="0 0 0 0 0 0 0 0 0 0 0 0 0 0 0 0 0 0 127 0"/>
<feOffset dx="5" dy="5"/>
<feGaussianBlur stdDeviation="2.5"/>
<feColorMatrix type="matrix" values="0 0 0 0 0 0 0 0 0 0 0 0 0 0 0 0 0 0 0.45 0"/>
<feBlend mode="normal" in2="BackgroundImageFix" result="effect1_dropShadow"/>
<feBlend mode="normal" in="SourceGraphic" in2="effect1_dropShadow" result="shape"/>
</filter>
</defs>
</svg>
