<svg width="130" height="130" viewBox="0 0 130 130" fill="none" xmlns="http://www.w3.org/2000/svg">
<g filter="url(#filter0_d)">
<circle cx="60" cy="60" r="60" fill="white"/>
</g>
<g filter="url(#filter1_d)">
<path d="M59.125 110C59.125 108.931 60.125 107.539 60.125 105.502C60.125 102.436 57.4167 97.4546 43.8542 88.0355C36.7083 82.1662 30 76.2364 30 66.192C30 43.0577 60.6458 30.593 60.6458 12.0169C60.6458 11.3514 60.6042 10.6656 60.5208 10C61.5833 10.4841 68.6667 18.7334 68.6667 28.2332C68.6667 44.4695 46.7708 54.2921 46.7708 69.1771C46.7708 74.6027 50.2292 78.6971 53.5625 83.1948C58.25 89.286 62.7708 94.6712 62.7708 100.641C62.75 103.566 61.8542 106.632 59.125 110ZM89.5417 61.311C89.8542 63.0052 90 64.6591 90 66.2727C90 76.7205 83.875 85.9379 75.9792 93.8645C75.7708 94.0662 75.5208 94.3485 75.3125 94.3485C74.5625 94.3485 67.9167 85.958 67.9167 83.6184C67.9167 83.6184 76.625 72.384 76.625 64.0742C76.625 61.8959 76.0625 59.6975 74.7292 57.3376C74.4167 63.8524 63.125 75.0262 62.625 75.0262C62.0625 75.0262 58.8958 70.5889 58.8958 66.5349C58.8958 65.4659 59.1042 64.3768 59.5625 63.3481C60.0625 62.2388 71.3542 48.8261 71.3542 39.8104C71.3542 38.5599 71.1458 37.3901 70.6458 36.3614L69.8125 34.9092C73.2917 36.2203 87.0208 47.8378 89.5417 61.311Z" fill="#E2231A"/>
</g>
<defs>
<filter id="filter0_d" x="0" y="0" width="130" height="130" filterUnits="userSpaceOnUse" color-interpolation-filters="sRGB">
<feFlood flood-opacity="0" result="BackgroundImageFix"/>
<feColorMatrix in="SourceAlpha" type="matrix" values="0 0 0 0 0 0 0 0 0 0 0 0 0 0 0 0 0 0 127 0"/>
<feOffset dx="5" dy="5"/>
<feGaussianBlur stdDeviation="2.5"/>
<feColorMatrix type="matrix" values="0 0 0 0 0 0 0 0 0 0 0 0 0 0 0 0 0 0 0.45 0"/>
<feBlend mode="normal" in2="BackgroundImageFix" result="effect1_dropShadow"/>
<feBlend mode="normal" in="SourceGraphic" in2="effect1_dropShadow" result="shape"/>
</filter>
<filter id="filter1_d" x="26" y="10" width="68" height="108" filterUnits="userSpaceOnUse" color-interpolation-filters="sRGB">
<feFlood flood-opacity="0" result="BackgroundImageFix"/>
<feColorMatrix in="SourceAlpha" type="matrix" values="0 0 0 0 0 0 0 0 0 0 0 0 0 0 0 0 0 0 127 0"/>
<feOffset dy="4"/>
<feGaussianBlur stdDeviation="2"/>
<feColorMatrix type="matrix" values="0 0 0 0 0 0 0 0 0 0 0 0 0 0 0 0 0 0 0.25 0"/>
<feBlend mode="normal" in2="BackgroundImageFix" result="effect1_dropShadow"/>
<feBlend mode="normal" in="SourceGraphic" in2="effect1_dropShadow" result="shape"/>
</filter>
</defs>
</svg>
