<svg width="120" height="120" viewBox="0 0 120 120" fill="none" xmlns="http://www.w3.org/2000/svg">
<circle cx="60" cy="60" r="60" fill="white"/>
<path d="M60 20C37.9081 20 20 37.9081 20 60C20 82.0919 37.9081 100 60 100C82.0919 100 100 82.0919 100 60C100 37.9081 82.0919 20 60 20ZM73.2726 77.6774C72.6435 78.3032 71.9839 78.9597 71.4484 79.4968C70.9661 79.9806 70.6258 80.5774 70.4532 81.2242C70.2097 82.1371 70.0129 83.0597 69.6839 83.9452L66.879 91.5016C64.6597 91.9855 62.3629 92.2581 60 92.2581V87.8419C60.2726 85.8064 58.7677 81.9935 56.35 79.5758C55.3823 78.6081 54.8387 77.2952 54.8387 75.9258V70.7629C54.8387 68.8855 53.8274 67.1597 52.1839 66.2516C49.8661 64.9694 46.5694 63.1774 44.3113 62.0403C42.4597 61.1081 40.7468 59.921 39.2065 58.5323L39.0774 58.4161C37.9759 57.4218 36.9979 56.2987 36.1645 55.071C34.6516 52.85 32.1871 49.1968 30.5855 46.8226C33.8871 39.4839 39.8371 33.5903 47.2306 30.3887L51.1032 32.3258C52.8194 33.1839 54.8387 31.9371 54.8387 30.0177V28.1952C56.1274 27.9871 57.4387 27.8548 58.7726 27.8048L63.3371 32.3694C64.3452 33.3774 64.3452 35.0113 63.3371 36.0194L62.5806 36.7742L60.9129 38.4419C60.4097 38.9452 60.4097 39.7629 60.9129 40.2661L61.6694 41.0226C62.1726 41.5258 62.1726 42.3435 61.6694 42.8468L60.379 44.1371C60.1368 44.3789 59.8084 44.5146 59.4661 44.5145H58.0161C57.6806 44.5145 57.3581 44.6452 57.1161 44.8806L55.5161 46.4371C55.32 46.6281 55.1896 46.8764 55.1438 47.1463C55.098 47.4162 55.1392 47.6937 55.2613 47.9387L57.7758 52.9694C58.2048 53.8274 57.5806 54.8371 56.6226 54.8371H55.7129C55.4016 54.8371 55.1016 54.7242 54.8677 54.521L53.371 53.221C53.0323 52.9271 52.6229 52.7265 52.1831 52.6388C51.7434 52.5512 51.2884 52.5795 50.8629 52.721L45.8355 54.3968C45.4517 54.5248 45.1178 54.7703 44.8813 55.0986C44.6448 55.4268 44.5176 55.8212 44.5177 56.2258C44.5177 56.9565 44.9306 57.6226 45.5839 57.95L47.371 58.8435C48.8887 59.6032 50.5629 59.9984 52.2597 59.9984C53.9565 59.9984 55.9032 64.4 57.421 65.1597H68.1871C69.5564 65.1597 70.8677 65.7032 71.8371 66.671L74.0452 68.879C74.9676 69.8018 75.4857 71.0533 75.4855 72.3581C75.4852 73.3468 75.2895 74.3257 74.9097 75.2385C74.53 76.1514 73.9736 76.9802 73.2726 77.6774ZM87.2581 62.9435C86.3242 62.7097 85.5097 62.1371 84.9758 61.3355L82.0758 56.9855C81.6515 56.3499 81.425 55.6029 81.425 54.8387C81.425 54.0745 81.6515 53.3275 82.0758 52.6919L85.2355 47.9532C85.6097 47.3935 86.1226 46.9387 86.7258 46.6387L88.8194 45.5919C91 49.9339 92.2581 54.8177 92.2581 60C92.2581 61.3984 92.1387 62.7677 91.9645 64.1194L87.2581 62.9435Z" fill="#E2231A"/>
</svg>
