<svg width="28" height="30" viewBox="0 0 28 30" fill="none" xmlns="http://www.w3.org/2000/svg">
<path d="M26.9828 1.44204L21.2954 0.0357899C20.6775 -0.116554 20.0431 0.229149 19.7916 0.850243L17.1666 7.41274C16.9369 7.98696 17.0901 8.66079 17.544 9.05337L20.858 11.9596C18.8892 16.4538 15.4495 20.192 11.1675 22.3424L8.45509 18.7916C8.08322 18.3053 7.45979 18.1413 6.92387 18.3874L0.798991 21.1999C0.213847 21.4752 -0.108803 22.1549 0.0333814 22.817L1.34585 28.9108C1.48257 29.5436 2.00756 30.0006 2.62552 30.0006C16.6307 30.0006 28 17.8424 28 2.81313C28 2.15688 27.5789 1.58852 26.9828 1.44204Z" fill="white"/>
</svg>
