<svg width="30" height="30" viewBox="0 0 30 30" fill="none" xmlns="http://www.w3.org/2000/svg">
<path d="M0.407993 25.9369L6.25022 20.0957C6.51391 19.832 6.87136 19.6856 7.24638 19.6856H8.20153C6.58422 17.6174 5.62322 15.0161 5.62322 12.1863C5.62322 5.45455 11.0787 0 17.8116 0C24.5445 0 30 5.45455 30 12.1863C30 18.9181 24.5445 24.3726 17.8116 24.3726C14.9813 24.3726 12.3796 23.4118 10.3111 21.7947V22.7497C10.3111 23.1247 10.1646 23.4821 9.90088 23.7457L4.05865 29.587C3.50783 30.1377 2.61714 30.1377 2.07218 29.587L0.413853 27.9289C-0.136969 27.3782 -0.136969 26.4876 0.407993 25.9369ZM17.8116 19.6856C21.9545 19.6856 25.3122 16.3343 25.3122 12.1863C25.3122 8.04414 21.9604 4.68704 17.8116 4.68704C13.6687 4.68704 10.3111 8.03828 10.3111 12.1863C10.3111 16.3285 13.6629 19.6856 17.8116 19.6856Z" fill="white"/>
</svg>
