<svg width="30" height="24" viewBox="0 0 30 24" fill="none" xmlns="http://www.w3.org/2000/svg">
<path d="M26.9163 5.98123C26.9354 6.24372 26.9354 6.50626 26.9354 6.76875C26.9354 14.775 20.7488 24 9.44166 24C5.95813 24 2.7221 23.0062 0 21.2813C0.494943 21.3375 0.970785 21.3563 1.48477 21.3563C4.3591 21.3563 7.00509 20.4 9.11804 18.7688C6.41499 18.7125 4.14974 16.9688 3.36927 14.5687C3.75001 14.625 4.1307 14.6625 4.53049 14.6625C5.0825 14.6625 5.63457 14.5874 6.1485 14.4563C3.33124 13.8937 1.21823 11.4562 1.21823 8.51249V8.43752C2.03673 8.88752 2.98859 9.16877 3.9974 9.20622C2.3413 8.1187 1.25631 6.26247 1.25631 4.16246C1.25631 3.03748 1.56083 2.00623 2.09386 1.10622C5.12053 4.78122 9.67006 7.18118 14.7715 7.44372C14.6764 6.99372 14.6193 6.52502 14.6193 6.05626C14.6193 2.71872 17.3604 0 20.7678 0C22.5381 0 24.137 0.731248 25.2602 1.9125C26.6497 1.65001 27.9822 1.14374 29.1625 0.450003C28.7055 1.85628 27.7348 3.03754 26.4594 3.78748C27.6967 3.6563 28.896 3.31872 30 2.85002C29.1626 4.04997 28.1156 5.11868 26.9163 5.98123Z" fill="#F7FAF9"/>
</svg>
